G04 Layer_Color=16711935*
%FSLAX25Y25*%
%MOIN*%
G70*
G01*
G75*
%ADD84C,0.00276*%
%ADD85C,0.00394*%
D84*
X82970Y23234D02*
G03*
X82970Y23234I-787J0D01*
G01*
D85*
X32652Y12679D02*
G03*
X32652Y12679I-1969J0D01*
G01*
X27238Y32937D02*
X46923D01*
X27238D02*
Y44748D01*
X39049D01*
X46923D01*
Y32937D02*
Y44748D01*
X88679Y21266D02*
Y29533D01*
X80411Y21266D02*
Y29533D01*
X88679D01*
X80411Y21266D02*
X88679D01*
X42100Y9136D02*
Y29608D01*
X27140Y9136D02*
Y29608D01*
X42100D01*
X27140Y9136D02*
X42100D01*
X87287Y13508D02*
X89453D01*
X87287Y17642D02*
X89453D01*
X87287Y13508D02*
Y17642D01*
X89453Y13508D02*
Y17642D01*
X83287Y13539D02*
X85453D01*
X83287Y17673D02*
X85453D01*
X83287Y13539D02*
Y17673D01*
X85453Y13539D02*
Y17673D01*
X48537Y38741D02*
X50703D01*
X48537Y34607D02*
X50703D01*
Y38741D01*
X48537Y34607D02*
Y38741D01*
Y45392D02*
X50703D01*
X48537Y41258D02*
X50703D01*
Y45392D01*
X48537Y41258D02*
Y45392D01*
X91437Y31201D02*
X93602D01*
X91437Y27067D02*
X93602D01*
Y31201D01*
X91437Y27067D02*
Y31201D01*
X66787Y10392D02*
X68953D01*
X66787Y6258D02*
X68953D01*
Y10392D01*
X66787Y6258D02*
Y10392D01*
X61713Y44655D02*
X67027D01*
X61713Y35994D02*
X67027D01*
X61713D02*
Y44655D01*
X67027Y35994D02*
Y44655D01*
X20866Y4882D02*
Y44842D01*
X394D02*
X20866D01*
X394Y4882D02*
X20866D01*
X394D02*
Y44842D01*
X91189Y17740D02*
X93551D01*
X91189Y13409D02*
X93551D01*
Y17740D01*
X91189Y13409D02*
Y17740D01*
X34843Y46457D02*
Y48819D01*
X39173Y46457D02*
Y48819D01*
X34843D02*
X39173D01*
X34843Y46457D02*
X39173D01*
X29455Y4394D02*
Y6756D01*
X33785Y4394D02*
Y6756D01*
X29455D02*
X33785D01*
X29455Y4394D02*
X33785D01*
X43565Y3955D02*
Y7695D01*
X36675Y3955D02*
Y7695D01*
Y3955D02*
X43565D01*
X36675Y7695D02*
X43565D01*
X44439Y14623D02*
X46801D01*
X44439Y10293D02*
X46801D01*
Y14623D01*
X44439Y10293D02*
Y14623D01*
X72441Y21287D02*
X78150D01*
X72441Y29949D02*
X78150D01*
X72441Y21287D02*
Y29949D01*
X78150Y21287D02*
Y29949D01*
X72039Y12720D02*
Y18429D01*
X80701Y12720D02*
Y18429D01*
X72039D02*
X80701D01*
X72039Y12720D02*
X80701D01*
X63035Y10894D02*
Y13256D01*
X58705Y10894D02*
Y13256D01*
Y10894D02*
X63035D01*
X58705Y13256D02*
X63035D01*
X64315Y5455D02*
Y9195D01*
X57425Y5455D02*
Y9195D01*
Y5455D02*
X64315D01*
X57425Y9195D02*
X64315D01*
X49516Y4244D02*
X55224D01*
X49516Y12905D02*
X55224D01*
X49516Y4244D02*
Y12905D01*
X55224Y4244D02*
Y12905D01*
M02*
