M48
;Layer_Color=9474304
;FILE_FORMAT=2:5
INCH,TZ
;TYPE=PLATED
T1F00S00C0.01500
T2F00S00C0.01600
T3F00S00C0.02400
T4F00S00C0.03543
%
T01
X82970Y25400
X86120
T02
X8370Y7075
X25620Y5575
X24606Y13203
X32652Y19372
X36589
X36417Y24606
X32480
X46120Y22575
X46136Y18388
X57620Y20075
X61620Y24075
X57620Y28075
X53620Y24075
X52486Y38441
X64370Y42884
X71820Y39084
X76378Y41732
X80709
X80541Y33912
X92370Y34325
X92520Y20472
X69779Y23968
X69370Y27968
X68189Y31832
X66120Y13575
X46801Y5825
X44463Y47325
X29620
X26844Y38842
X8495Y42825
X14120Y27322
X14370Y22259
T03
X67716Y2362
X68976Y19575
T04
X76644Y5421
X86644
X101575Y5512
X111575
Y15512
X101575
Y25512
X111575
Y35512
X101575
Y45512
X111575
M30
