G04 Layer_Color=65535*
%FSLAX25Y25*%
%MOIN*%
G70*
G01*
G75*
%ADD49C,0.00984*%
%ADD50C,0.00600*%
%ADD51C,0.00669*%
%ADD52C,0.00787*%
D49*
X44955Y47307D02*
G03*
X44955Y47307I-492J0D01*
G01*
X28222Y6577D02*
G03*
X28222Y6577I-492J0D01*
G01*
X68602Y34774D02*
G03*
X68602Y34774I-492J0D01*
G01*
X25887Y32244D02*
G03*
X25887Y32244I-492J0D01*
G01*
D50*
X94770Y38575D02*
G03*
X94770Y38575I-300J0D01*
G01*
X89470Y32275D02*
Y35865D01*
X75270Y32275D02*
X89470D01*
X75270Y41285D02*
Y44875D01*
X89470D01*
Y41285D02*
Y44875D01*
X75270Y32275D02*
Y35865D01*
D51*
X80018Y21167D02*
Y23726D01*
Y28943D02*
Y29632D01*
X89073Y28943D02*
Y29632D01*
Y21167D02*
Y21856D01*
D52*
X63386Y35994D02*
Y44655D01*
X65354Y35994D02*
Y44655D01*
X63386D02*
X65354D01*
X63386Y35994D02*
X65354D01*
X71644Y10421D02*
X91644D01*
X71644Y421D02*
Y10421D01*
Y421D02*
X91644D01*
Y10421D01*
X20866Y35393D02*
Y44842D01*
X16142D02*
X20866D01*
Y4882D02*
Y14331D01*
X16142Y4881D02*
X20866D01*
X394Y44842D02*
X1181D01*
X394Y4881D02*
X1181D01*
X394Y4882D02*
Y44842D01*
X116075Y3012D02*
X119575D01*
Y48012D01*
X116075D02*
X119575D01*
X116075Y5512D02*
X118575Y3012D01*
X116075D02*
Y48012D01*
X65494Y32835D02*
X66380D01*
Y31949D02*
Y32835D01*
X48860Y31949D02*
Y32835D01*
X49746D01*
X48860Y15315D02*
X49746D01*
X48860D02*
Y16201D01*
X66380Y15315D02*
Y17776D01*
X63919Y15315D02*
X66380D01*
X39923Y4447D02*
X40317D01*
X39923Y7203D02*
X40317D01*
X73032Y25421D02*
Y25815D01*
X77559Y25421D02*
Y25815D01*
X76173Y17839D02*
X76567D01*
X76173Y13311D02*
X76567D01*
X60673Y5947D02*
X61067D01*
X60673Y8703D02*
X61067D01*
X50106Y8378D02*
Y8772D01*
X54634Y8378D02*
Y8772D01*
M02*
