G04 Layer_Physical_Order=2*
G04 Layer_Color=16711680*
%FSLAX25Y25*%
%MOIN*%
G70*
G01*
G75*
%ADD28C,0.01500*%
%ADD29C,0.00800*%
%ADD31C,0.02000*%
%ADD36C,0.03000*%
%ADD37R,0.05906X0.05906*%
%ADD38C,0.05906*%
%ADD39R,0.05906X0.05906*%
%ADD40C,0.03500*%
%ADD41C,0.03200*%
%ADD42C,0.01969*%
%ADD43C,0.02500*%
%ADD44R,0.05512X0.00787*%
%ADD45R,0.00787X0.05512*%
%ADD46C,0.04000*%
%ADD47C,0.03500*%
%ADD48R,0.02362X0.05512*%
G36*
X16536Y18207D02*
X15552Y19193D01*
X12008Y19193D01*
X11024Y18209D01*
X11023Y19685D01*
X16536D01*
X16536Y18207D01*
D02*
G37*
G36*
X23623D02*
X22638Y19193D01*
X19094Y19193D01*
X18111Y18209D01*
X18110Y19685D01*
X23622D01*
X23623Y18207D01*
D02*
G37*
G36*
X16535Y17028D02*
X11023D01*
X12303Y18307D01*
X15256D01*
X16535Y17028D01*
D02*
G37*
G36*
X23622D02*
X18110D01*
X19390Y18307D01*
X22342D01*
X23622Y17028D01*
D02*
G37*
G36*
X99490Y49142D02*
X99582Y48713D01*
X98898Y48188D01*
X98297Y47404D01*
X97919Y46492D01*
X97790Y45512D01*
X97919Y44532D01*
X98297Y43619D01*
X98898Y42835D01*
X99682Y42234D01*
X100595Y41856D01*
X101575Y41727D01*
X102555Y41856D01*
X103467Y42234D01*
X104059Y42688D01*
X109091D01*
X109682Y42234D01*
X110595Y41856D01*
X111575Y41727D01*
X112555Y41856D01*
X113467Y42234D01*
X113526Y42279D01*
X119223Y36583D01*
Y12681D01*
X115666Y9124D01*
X115328Y9265D01*
Y9265D01*
X107822D01*
Y8336D01*
X104059D01*
X103467Y8790D01*
X102555Y9168D01*
X101575Y9297D01*
X100595Y9168D01*
X99682Y8790D01*
X98898Y8188D01*
X98297Y7404D01*
X97919Y6492D01*
X97790Y5512D01*
X97919Y4532D01*
X98297Y3619D01*
X98898Y2835D01*
X99376Y2468D01*
X99207Y1969D01*
X89130D01*
X88961Y2468D01*
X89320Y2745D01*
X89922Y3528D01*
X90300Y4441D01*
X90429Y5421D01*
X90300Y6401D01*
X89922Y7314D01*
X89320Y8098D01*
X88537Y8699D01*
X87624Y9077D01*
X86644Y9206D01*
X85664Y9077D01*
X84751Y8699D01*
X83967Y8098D01*
X83366Y7314D01*
X82988Y6401D01*
X82859Y5421D01*
X82988Y4441D01*
X83366Y3528D01*
X83967Y2745D01*
X84327Y2468D01*
X84158Y1969D01*
X79597D01*
X79597Y2468D01*
X79597Y2468D01*
Y4921D01*
X73691D01*
Y2468D01*
X73691Y2468D01*
X73691Y1969D01*
X70632D01*
X70315Y2355D01*
X70316Y2362D01*
X70119Y3357D01*
X69555Y4201D01*
X68712Y4764D01*
X67716Y4962D01*
X66722Y4764D01*
X65878Y4201D01*
X65315Y3357D01*
X65117Y2362D01*
X65118Y2355D01*
X64801Y1969D01*
X1969D01*
Y49213D01*
X27213D01*
X27481Y48713D01*
X27218Y48320D01*
X27020Y47325D01*
X27218Y46330D01*
X27782Y45486D01*
X28625Y44923D01*
X29620Y44725D01*
X47725D01*
Y38441D01*
Y31625D01*
X47903Y30727D01*
X48412Y29967D01*
X51962Y26417D01*
X52723Y25908D01*
X53620Y25730D01*
X53712Y25748D01*
X60165Y19295D01*
Y17695D01*
X60304Y16993D01*
X60702Y16397D01*
X63710Y13389D01*
X63859Y12638D01*
X64213Y12110D01*
X63945Y11610D01*
X44181D01*
X43713Y11517D01*
X43316Y11251D01*
X41663Y9598D01*
X39730D01*
X39539Y10060D01*
X45538Y16060D01*
X46136Y15941D01*
X47072Y16127D01*
X47866Y16657D01*
X48397Y17451D01*
X48583Y18388D01*
X48397Y19324D01*
X47866Y20118D01*
X47689Y20237D01*
Y20737D01*
X47850Y20844D01*
X48381Y21638D01*
X48567Y22575D01*
X48381Y23511D01*
X47850Y24305D01*
X47056Y24836D01*
X46120Y25022D01*
X45184Y24836D01*
X44390Y24305D01*
X43859Y23511D01*
X43673Y22575D01*
X43709Y22394D01*
X35741Y14426D01*
X26675D01*
X26337Y14933D01*
X25543Y15464D01*
X24606Y15650D01*
X24422Y15801D01*
Y16949D01*
X24438Y17028D01*
X24422Y17106D01*
Y17828D01*
X24422D01*
X24438Y18207D01*
X24438Y18207D01*
X24438Y18207D01*
X24438Y18321D01*
X24438Y19685D01*
X24422Y19765D01*
Y20879D01*
X21016D01*
X20866Y20909D01*
X16910D01*
X16648Y21409D01*
X16817Y22259D01*
X16631Y23195D01*
X16100Y23989D01*
X15306Y24520D01*
X14370Y24706D01*
X13434Y24520D01*
X12640Y23989D01*
X12109Y23195D01*
X11923Y22259D01*
X12098Y21379D01*
X12058Y21221D01*
X11875Y20879D01*
X10224D01*
Y19765D01*
X10208Y19685D01*
X10208Y19685D01*
X10208Y19685D01*
X10208Y18209D01*
X10208Y18209D01*
X10223Y17828D01*
X10223Y17828D01*
Y17106D01*
X10208Y17028D01*
X10223Y16949D01*
Y15440D01*
X12617D01*
X12649Y15280D01*
X12914Y14883D01*
X20288Y7510D01*
X20685Y7244D01*
X21153Y7151D01*
X42170D01*
X42638Y7244D01*
X43035Y7510D01*
X44688Y9163D01*
X67796D01*
X68265Y9256D01*
X68661Y9521D01*
X70223Y11082D01*
X70488Y11479D01*
X70581Y11947D01*
Y14330D01*
X73940Y17689D01*
X90960D01*
X91428Y17783D01*
X91825Y18048D01*
X91922Y18144D01*
X92520Y18025D01*
X93456Y18212D01*
X94250Y18742D01*
X94780Y19536D01*
X94967Y20472D01*
X94780Y21409D01*
X94453Y21899D01*
X94721Y22399D01*
X96336D01*
X98425Y20310D01*
X98822Y20044D01*
X99290Y19951D01*
X106737D01*
X107206Y20044D01*
X107603Y20310D01*
X109594Y22301D01*
X109682Y22234D01*
X110595Y21856D01*
X111575Y21727D01*
X112555Y21856D01*
X113467Y22234D01*
X114251Y22835D01*
X114853Y23619D01*
X115231Y24532D01*
X115360Y25512D01*
X115231Y26491D01*
X114853Y27404D01*
X114251Y28188D01*
X113467Y28790D01*
X112555Y29168D01*
X111575Y29297D01*
X110595Y29168D01*
X109682Y28790D01*
X108898Y28188D01*
X108297Y27404D01*
X107919Y26491D01*
X107790Y25512D01*
X107919Y24532D01*
X108049Y24217D01*
X106231Y22398D01*
X104418D01*
X104300Y22898D01*
X104853Y23619D01*
X105231Y24532D01*
X105360Y25512D01*
X105231Y26491D01*
X104853Y27404D01*
X104251Y28188D01*
X103467Y28790D01*
X102555Y29168D01*
X101575Y29297D01*
X100595Y29168D01*
X99682Y28790D01*
X98898Y28188D01*
X98297Y27404D01*
X98020Y26735D01*
X90569D01*
X90101Y26642D01*
X89704Y26377D01*
X87375Y24048D01*
X75713D01*
X71813Y27949D01*
X71817Y27968D01*
X71631Y28905D01*
X71100Y29699D01*
X70456Y30130D01*
X70318Y30698D01*
X70450Y30895D01*
X70636Y31832D01*
X70450Y32768D01*
X69919Y33562D01*
X69125Y34093D01*
X68189Y34279D01*
X67252Y34093D01*
X66459Y33562D01*
X65928Y32768D01*
X65742Y31832D01*
X65861Y31234D01*
X64505Y29878D01*
X64240Y29481D01*
X64147Y29013D01*
Y20554D01*
X63955Y20487D01*
X63647Y20470D01*
X63298Y20993D01*
X62702Y21390D01*
X62499Y21431D01*
X55947Y27983D01*
X55965Y28075D01*
X55787Y28972D01*
X55278Y29733D01*
X52415Y32596D01*
Y35936D01*
X52486Y35994D01*
X53423Y36180D01*
X54217Y36711D01*
X54747Y37505D01*
X54933Y38441D01*
X54747Y39378D01*
X54217Y40171D01*
X53423Y40702D01*
X52486Y40888D01*
X52415Y40947D01*
Y44725D01*
X67787D01*
Y42913D01*
X67849Y42601D01*
X68026Y42337D01*
X68290Y42160D01*
X68602Y42098D01*
X70965D01*
X71045Y42114D01*
X71764D01*
Y42114D01*
X72144Y42097D01*
X72144Y42097D01*
X72145Y42097D01*
X72258Y42097D01*
X72850Y42097D01*
X73158Y41636D01*
X74357Y40437D01*
X74648Y40002D01*
X75441Y39472D01*
X76378Y39285D01*
X76890Y39387D01*
X80196D01*
X80709Y39285D01*
X81645Y39472D01*
X82439Y40002D01*
X82969Y40796D01*
X83156Y41732D01*
X82969Y42669D01*
X82439Y43463D01*
X81645Y43993D01*
X80709Y44179D01*
X80196Y44077D01*
X77349D01*
X76800Y44627D01*
Y48425D01*
X76743Y48713D01*
X76741Y48743D01*
X77022Y49213D01*
X99452D01*
X99490Y49142D01*
D02*
G37*
G36*
X73622Y42913D02*
X72144Y42913D01*
X73130Y43897D01*
X73130Y47441D01*
X72146Y48425D01*
X73622Y48425D01*
Y42913D01*
D02*
G37*
G36*
X72244Y47146D02*
Y44193D01*
X70965Y42914D01*
Y48425D01*
X72244Y47146D01*
D02*
G37*
%LPC*%
G36*
X111075Y15012D02*
X108662D01*
X108698Y14741D01*
X108996Y14023D01*
X109469Y13406D01*
X110086Y12933D01*
X110804Y12635D01*
X111075Y12599D01*
Y15012D01*
D02*
G37*
G36*
X104487D02*
X102075D01*
Y12599D01*
X102346Y12635D01*
X103064Y12933D01*
X103681Y13406D01*
X104154Y14023D01*
X104452Y14741D01*
X104487Y15012D01*
D02*
G37*
G36*
X114487D02*
X112075D01*
Y12599D01*
X112346Y12635D01*
X113064Y12933D01*
X113681Y13406D01*
X114154Y14023D01*
X114452Y14741D01*
X114487Y15012D01*
D02*
G37*
G36*
X101075D02*
X98662D01*
X98698Y14741D01*
X98996Y14023D01*
X99469Y13406D01*
X100086Y12933D01*
X100804Y12635D01*
X101075Y12599D01*
Y15012D01*
D02*
G37*
G36*
X79597Y8374D02*
X77144D01*
Y5921D01*
X79597D01*
Y8374D01*
D02*
G37*
G36*
X76144D02*
X73691D01*
Y5921D01*
X76144D01*
Y8374D01*
D02*
G37*
G36*
X101075Y18424D02*
X100804Y18389D01*
X100086Y18091D01*
X99469Y17618D01*
X98996Y17001D01*
X98698Y16283D01*
X98662Y16012D01*
X101075D01*
Y18424D01*
D02*
G37*
G36*
X92370Y36772D02*
X91434Y36586D01*
X90640Y36055D01*
X90301Y35548D01*
X82335D01*
X82272Y35643D01*
X81478Y36173D01*
X80541Y36359D01*
X79605Y36173D01*
X78811Y35643D01*
X78281Y34849D01*
X78094Y33912D01*
X78281Y32976D01*
X78811Y32182D01*
X79605Y31651D01*
X80541Y31465D01*
X81478Y31651D01*
X82272Y32182D01*
X82802Y32976D01*
X82827Y33101D01*
X90301D01*
X90640Y32594D01*
X91434Y32064D01*
X92370Y31878D01*
X93306Y32064D01*
X94100Y32594D01*
X94631Y33388D01*
X94817Y34325D01*
X94631Y35261D01*
X94100Y36055D01*
X93306Y36586D01*
X92370Y36772D01*
D02*
G37*
G36*
X101575Y39297D02*
X100595Y39168D01*
X99682Y38790D01*
X98898Y38188D01*
X98297Y37404D01*
X97919Y36492D01*
X97790Y35512D01*
X97919Y34532D01*
X98297Y33619D01*
X98898Y32835D01*
X99682Y32234D01*
X100595Y31856D01*
X101575Y31727D01*
X102555Y31856D01*
X103467Y32234D01*
X104251Y32835D01*
X104853Y33619D01*
X105231Y34532D01*
X105360Y35512D01*
X105231Y36492D01*
X104853Y37404D01*
X104251Y38188D01*
X103467Y38790D01*
X102555Y39168D01*
X101575Y39297D01*
D02*
G37*
G36*
X111575D02*
X110595Y39168D01*
X109682Y38790D01*
X108898Y38188D01*
X108297Y37404D01*
X107919Y36492D01*
X107790Y35512D01*
X107919Y34532D01*
X108297Y33619D01*
X108898Y32835D01*
X109682Y32234D01*
X110595Y31856D01*
X111575Y31727D01*
X112555Y31856D01*
X113467Y32234D01*
X114251Y32835D01*
X114853Y33619D01*
X115231Y34532D01*
X115360Y35512D01*
X115231Y36492D01*
X114853Y37404D01*
X114251Y38188D01*
X113467Y38790D01*
X112555Y39168D01*
X111575Y39297D01*
D02*
G37*
G36*
X111075Y18424D02*
X110804Y18389D01*
X110086Y18091D01*
X109469Y17618D01*
X108996Y17001D01*
X108698Y16283D01*
X108662Y16012D01*
X111075D01*
Y18424D01*
D02*
G37*
G36*
X102075D02*
Y16012D01*
X104487D01*
X104452Y16283D01*
X104154Y17001D01*
X103681Y17618D01*
X103064Y18091D01*
X102346Y18389D01*
X102075Y18424D01*
D02*
G37*
G36*
X112075D02*
Y16012D01*
X114487D01*
X114452Y16283D01*
X114154Y17001D01*
X113681Y17618D01*
X113064Y18091D01*
X112346Y18389D01*
X112075Y18424D01*
D02*
G37*
%LPD*%
D28*
X53620Y28075D02*
X62000Y19695D01*
D29*
X42170Y8375D02*
X44181Y10386D01*
X36248Y13203D02*
X45620Y22575D01*
X24606Y13203D02*
X36248D01*
X22460Y10403D02*
X38151D01*
X20866Y11997D02*
X22460Y10403D01*
X13779Y16634D02*
Y17028D01*
Y15748D02*
Y16634D01*
Y15748D02*
X21153Y8375D01*
X42170D01*
X13780Y19685D02*
X20866D01*
X13780D02*
X14370Y20276D01*
Y22259D01*
X87882Y22825D02*
X90569Y25512D01*
X90942Y23622D02*
X96843D01*
X90960Y18913D02*
X92520Y20472D01*
X88186Y20866D02*
X90942Y23622D01*
X90569Y25512D02*
X101575D01*
X96843Y23622D02*
X99290Y21175D01*
X106737D01*
X111075Y25512D01*
X81554Y34325D02*
X92370D01*
X45620Y22575D02*
X46120D01*
X38151Y10403D02*
X46136Y18388D01*
X20866Y11997D02*
Y17028D01*
X80714Y33485D02*
X81554Y34325D01*
X65370Y18825D02*
Y29013D01*
Y18825D02*
X69358Y14837D01*
X44181Y10386D02*
X67796D01*
X69358Y11947D01*
Y14837D01*
X69358D01*
X73434Y18913D01*
X90960D01*
X72095Y20866D02*
X88186D01*
X65370Y29013D02*
X68189Y31832D01*
X69386Y23575D02*
X72095Y20866D01*
X70457Y27575D02*
X75207Y22825D01*
X87882D01*
X69370Y27575D02*
X70457D01*
D31*
X62000Y17695D02*
X66120Y13575D01*
X62000Y17695D02*
Y19695D01*
D36*
X50070Y38441D02*
Y47325D01*
X70571Y45884D02*
Y46747D01*
X50070Y38441D02*
X52486D01*
X50070Y31625D02*
Y38441D01*
Y31625D02*
X53620Y28075D01*
X76378Y41732D02*
X80709D01*
X74816Y43295D02*
X76378Y41732D01*
D37*
X76644Y5421D02*
D03*
D38*
X86644D02*
D03*
X101575Y5512D02*
D03*
X111575Y15512D02*
D03*
X101575D02*
D03*
X111575Y25512D02*
D03*
X101575D02*
D03*
X111575Y35512D02*
D03*
X101575D02*
D03*
X111575Y45512D02*
D03*
X101575D02*
D03*
D39*
X111575Y5512D02*
D03*
D40*
X67716Y2362D02*
D03*
X68976Y19575D02*
D03*
D41*
X44463Y47325D02*
D03*
X14120Y27322D02*
D03*
X8495Y42825D02*
D03*
X8370Y7075D02*
D03*
X46136Y18388D02*
D03*
X52486Y38441D02*
D03*
X64370Y42884D02*
D03*
X32480Y24606D02*
D03*
X36417D02*
D03*
X36589Y19372D02*
D03*
X46801Y5825D02*
D03*
X25620Y5575D02*
D03*
X32652Y19372D02*
D03*
X24606Y13203D02*
D03*
X14370Y22259D02*
D03*
X26844Y38842D02*
D03*
X66120Y13575D02*
D03*
X71820Y39084D02*
D03*
X80709Y41732D02*
D03*
X92520Y20472D02*
D03*
X92370Y34325D02*
D03*
X29620Y47325D02*
D03*
X46120Y22575D02*
D03*
X80541Y33912D02*
D03*
X76378Y41732D02*
D03*
X68189Y31832D02*
D03*
X69370Y27968D02*
D03*
X69779Y23968D02*
D03*
D42*
X86120Y25400D02*
D03*
X82970D02*
D03*
D43*
X61620Y24075D02*
D03*
X57620Y28075D02*
D03*
Y20075D02*
D03*
X53620Y24075D02*
D03*
D44*
X20866Y16634D02*
D03*
X20866Y19685D02*
D03*
X13780D02*
D03*
X13779Y16634D02*
D03*
D45*
X70571Y45669D02*
D03*
X73622Y45669D02*
D03*
D46*
X114288Y45512D02*
X122047Y37753D01*
Y11511D02*
Y37753D01*
X116048Y5512D02*
X122047Y11511D01*
X101575Y45512D02*
X111575D01*
X114288D01*
X101575Y5512D02*
X111575D01*
X116048D01*
D47*
X44463Y47325D02*
X50070D01*
X69640D01*
X70394Y46571D01*
X29620Y47325D02*
X44463D01*
D48*
X74803Y45669D02*
D03*
X69784Y45669D02*
D03*
M02*
