G04 Layer_Color=32768*
%FSLAX25Y25*%
%MOIN*%
G70*
G01*
G75*
%ADD85C,0.00394*%
%ADD86C,0.00197*%
D85*
X37081Y36874D02*
Y40811D01*
X35112Y38842D02*
X39049D01*
X84545Y23431D02*
Y27368D01*
X82577Y25400D02*
X86514D01*
X32652Y19372D02*
X36589D01*
X34620Y17404D02*
Y21341D01*
X64370Y38356D02*
Y42293D01*
X62402Y40325D02*
X66339D01*
X14370Y22893D02*
Y26830D01*
X12402Y24862D02*
X16339D01*
X75295Y23650D02*
Y27587D01*
X73327Y25618D02*
X77264D01*
X74402Y15575D02*
X78339D01*
X76370Y13606D02*
Y17543D01*
X52370Y6606D02*
Y10543D01*
X50402Y8575D02*
X54339D01*
D86*
X26844Y45535D02*
X47317D01*
X26844Y32150D02*
Y45535D01*
Y32150D02*
X47317D01*
Y45535D01*
X79624Y20281D02*
X89467D01*
Y30518D01*
X79624D02*
X89467D01*
X79624Y20281D02*
Y30518D01*
X43085Y8152D02*
Y30593D01*
X26155Y8152D02*
Y30593D01*
X43085D01*
X26155Y8152D02*
X43085D01*
X86795Y12425D02*
X89945D01*
X86795Y18724D02*
X89945D01*
X86795Y12425D02*
Y18724D01*
X89945Y12425D02*
Y18724D01*
X88370Y14492D02*
Y16657D01*
X87287Y15575D02*
X89453D01*
X82795Y12457D02*
X85945D01*
X82795Y18756D02*
X85945D01*
X82795Y12457D02*
Y18756D01*
X85945Y12457D02*
Y18756D01*
X84370Y14524D02*
Y16689D01*
X83287Y15606D02*
X85453D01*
X48045Y39824D02*
X51195D01*
X48045Y33524D02*
X51195D01*
Y39824D01*
X48045Y33524D02*
Y39824D01*
X49620Y35591D02*
Y37757D01*
X48537Y36674D02*
X50703D01*
X48045Y46474D02*
X51195D01*
X48045Y40175D02*
X51195D01*
Y46474D01*
X48045Y40175D02*
Y46474D01*
X49620Y42242D02*
Y44407D01*
X48537Y43325D02*
X50703D01*
X90945Y32283D02*
X94095D01*
X90945Y25984D02*
X94095D01*
Y32283D01*
X90945Y25984D02*
Y32283D01*
X92520Y28051D02*
Y30217D01*
X91437Y29134D02*
X93602D01*
X66295Y11474D02*
X69445D01*
X66295Y5175D02*
X69445D01*
Y11474D01*
X66295Y5175D02*
Y11474D01*
X67870Y7242D02*
Y9408D01*
X66787Y8325D02*
X68953D01*
X59055Y45049D02*
X69685D01*
X59055Y35600D02*
X69685D01*
X59055D02*
Y45049D01*
X69685Y35600D02*
Y45049D01*
X23622Y2913D02*
Y46810D01*
X0D02*
X23622D01*
X0Y2913D02*
X23622D01*
X0D02*
Y46810D01*
X90795Y18724D02*
X93945D01*
X90795Y12425D02*
X93945D01*
Y18724D01*
X90795Y12425D02*
Y18724D01*
X92370Y14394D02*
Y16756D01*
X91189Y15575D02*
X93551D01*
X33858Y46063D02*
Y49213D01*
X40157Y46063D02*
Y49213D01*
X33858D02*
X40157D01*
X33858Y46063D02*
X40157D01*
X35827Y47638D02*
X38189D01*
X37008Y46457D02*
Y48819D01*
X28471Y4000D02*
Y7150D01*
X34770Y4000D02*
Y7150D01*
X28471D02*
X34770D01*
X28471Y4000D02*
X34770D01*
X30439Y5575D02*
X32801D01*
X31620Y4394D02*
Y6756D01*
X44648Y3659D02*
Y7990D01*
X35592Y3659D02*
Y7990D01*
Y3659D02*
X44648D01*
X35592Y7990D02*
X44648D01*
X38250Y5825D02*
X41990D01*
X40120Y3955D02*
Y7695D01*
X44045Y15608D02*
X47195D01*
X44045Y9308D02*
X47195D01*
Y15608D01*
X44045Y9308D02*
Y15608D01*
X45620Y11277D02*
Y13639D01*
X44439Y12458D02*
X46801D01*
X72146Y20106D02*
X78445D01*
X72146Y31130D02*
X78445D01*
X72146Y20106D02*
Y31130D01*
X78445Y20106D02*
Y31130D01*
X70858Y12425D02*
Y18724D01*
X81882Y12425D02*
Y18724D01*
X70858D02*
X81882D01*
X70858Y12425D02*
X81882D01*
X64020Y10500D02*
Y13650D01*
X57721Y10500D02*
Y13650D01*
Y10500D02*
X64020D01*
X57721Y13650D02*
X64020D01*
X59689Y12075D02*
X62051D01*
X60870Y10894D02*
Y13256D01*
X65398Y5159D02*
Y9490D01*
X56343Y5159D02*
Y9490D01*
Y5159D02*
X65398D01*
X56343Y9490D02*
X65398D01*
X59000Y7325D02*
X62740D01*
X60870Y5455D02*
Y9195D01*
X49220Y3063D02*
X55520D01*
X49220Y14087D02*
X55520D01*
X49220Y3063D02*
Y14087D01*
X55520Y3063D02*
Y14087D01*
M02*
