G04 Layer_Physical_Order=1*
G04 Layer_Color=255*
%FSLAX25Y25*%
%MOIN*%
G70*
G01*
G75*
%ADD10R,0.02165X0.04134*%
G04:AMPARAMS|DCode=11|XSize=35.43mil|YSize=62.99mil|CornerRadius=1.95mil|HoleSize=0mil|Usage=FLASHONLY|Rotation=90.000|XOffset=0mil|YOffset=0mil|HoleType=Round|Shape=RoundedRectangle|*
%AMROUNDEDRECTD11*
21,1,0.03543,0.05909,0,0,90.0*
21,1,0.03154,0.06299,0,0,90.0*
1,1,0.00390,0.02955,0.01577*
1,1,0.00390,0.02955,-0.01577*
1,1,0.00390,-0.02955,-0.01577*
1,1,0.00390,-0.02955,0.01577*
%
%ADD11ROUNDEDRECTD11*%
G04:AMPARAMS|DCode=12|XSize=9.84mil|YSize=19.69mil|CornerRadius=1.97mil|HoleSize=0mil|Usage=FLASHONLY|Rotation=180.000|XOffset=0mil|YOffset=0mil|HoleType=Round|Shape=RoundedRectangle|*
%AMROUNDEDRECTD12*
21,1,0.00984,0.01575,0,0,180.0*
21,1,0.00591,0.01969,0,0,180.0*
1,1,0.00394,-0.00295,0.00787*
1,1,0.00394,0.00295,0.00787*
1,1,0.00394,0.00295,-0.00787*
1,1,0.00394,-0.00295,-0.00787*
%
%ADD12ROUNDEDRECTD12*%
%ADD13R,0.00984X0.01575*%
%ADD14R,0.02362X0.00984*%
%ADD15R,0.02165X0.01772*%
%ADD16R,0.02362X0.01654*%
%ADD17R,0.06299X0.03150*%
%ADD18R,0.11811X0.08268*%
G04:AMPARAMS|DCode=19|XSize=9.45mil|YSize=23.62mil|CornerRadius=1.98mil|HoleSize=0mil|Usage=FLASHONLY|Rotation=270.000|XOffset=0mil|YOffset=0mil|HoleType=Round|Shape=RoundedRectangle|*
%AMROUNDEDRECTD19*
21,1,0.00945,0.01965,0,0,270.0*
21,1,0.00548,0.02362,0,0,270.0*
1,1,0.00397,-0.00983,-0.00274*
1,1,0.00397,-0.00983,0.00274*
1,1,0.00397,0.00983,0.00274*
1,1,0.00397,0.00983,-0.00274*
%
%ADD19ROUNDEDRECTD19*%
G04:AMPARAMS|DCode=20|XSize=9.45mil|YSize=23.62mil|CornerRadius=1.98mil|HoleSize=0mil|Usage=FLASHONLY|Rotation=180.000|XOffset=0mil|YOffset=0mil|HoleType=Round|Shape=RoundedRectangle|*
%AMROUNDEDRECTD20*
21,1,0.00945,0.01965,0,0,180.0*
21,1,0.00548,0.02362,0,0,180.0*
1,1,0.00397,-0.00274,0.00983*
1,1,0.00397,0.00274,0.00983*
1,1,0.00397,0.00274,-0.00983*
1,1,0.00397,-0.00274,-0.00983*
%
%ADD20ROUNDEDRECTD20*%
G04:AMPARAMS|DCode=21|XSize=106.3mil|YSize=106.3mil|CornerRadius=2.13mil|HoleSize=0mil|Usage=FLASHONLY|Rotation=180.000|XOffset=0mil|YOffset=0mil|HoleType=Round|Shape=RoundedRectangle|*
%AMROUNDEDRECTD21*
21,1,0.10630,0.10205,0,0,180.0*
21,1,0.10205,0.10630,0,0,180.0*
1,1,0.00425,-0.05102,0.05102*
1,1,0.00425,0.05102,0.05102*
1,1,0.00425,0.05102,-0.05102*
1,1,0.00425,-0.05102,-0.05102*
%
%ADD21ROUNDEDRECTD21*%
%ADD22R,0.06900X0.02800*%
%ADD23R,0.02047X0.02047*%
%ADD24R,0.02047X0.02047*%
%ADD25R,0.02756X0.03543*%
%ADD26R,0.05315X0.03740*%
%ADD27R,0.03740X0.05315*%
%ADD28C,0.01500*%
%ADD29C,0.00800*%
%ADD30C,0.01000*%
%ADD31C,0.02000*%
%ADD32C,0.01700*%
%ADD33C,0.02800*%
%ADD34C,0.02500*%
%ADD35C,0.01200*%
%ADD36C,0.03000*%
%ADD37R,0.05906X0.05906*%
%ADD38C,0.05906*%
%ADD39R,0.05906X0.05906*%
%ADD40C,0.03500*%
%ADD41C,0.03200*%
%ADD42C,0.01969*%
%ADD43C,0.02500*%
G36*
X85696Y22575D02*
X85781Y22575D01*
X85936Y22510D01*
X86055Y22391D01*
X86120Y22235D01*
X86120Y22151D01*
X86120Y19825D01*
X86120Y19825D01*
X86120Y19775D01*
X86082Y19683D01*
X86012Y19613D01*
X85920Y19575D01*
X85870D01*
X85870Y19575D01*
X85804Y19568D01*
X85681Y19517D01*
X85587Y19423D01*
X85536Y19301D01*
X85530Y19234D01*
Y16419D01*
X82964Y16419D01*
X82964Y16419D01*
X82653Y16388D01*
X82079Y16150D01*
X81639Y15710D01*
X81401Y15136D01*
X81370Y14825D01*
Y13325D01*
Y13325D01*
X81394Y13081D01*
X81581Y12630D01*
X81926Y12285D01*
X82376Y12099D01*
X82620Y12075D01*
X93029D01*
X93029Y12075D01*
X93197Y12075D01*
X93506Y11947D01*
X93742Y11710D01*
X93870Y11401D01*
X93870Y11234D01*
X93870Y11234D01*
X93892Y11008D01*
X94065Y10590D01*
X94385Y10270D01*
X94803Y10097D01*
X95029Y10075D01*
X109120D01*
X109120Y10075D01*
X109514Y10075D01*
X110287Y9921D01*
X111015Y9620D01*
X111670Y9182D01*
X112227Y8625D01*
X112665Y7970D01*
X112966Y7242D01*
X113120Y6469D01*
X113120Y6075D01*
X113120Y4825D01*
X113120Y4825D01*
Y4455D01*
X112976Y3731D01*
X112693Y3049D01*
X112283Y2434D01*
X111760Y1912D01*
X111146Y1502D01*
X110464Y1219D01*
X109739Y1075D01*
X109370D01*
X85370Y1075D01*
X85370D01*
X85099Y1075D01*
X84568Y1180D01*
X84067Y1388D01*
X83617Y1689D01*
X83234Y2072D01*
X82933Y2522D01*
X82726Y3023D01*
X82620Y3554D01*
X82620Y3825D01*
Y7575D01*
X82620Y7575D01*
X82607Y7837D01*
X82505Y8351D01*
X82304Y8836D01*
X82013Y9272D01*
X81642Y9643D01*
X81206Y9934D01*
X80721Y10135D01*
X80207Y10237D01*
X79945Y10250D01*
X79695Y10250D01*
X79695D01*
X79282Y10250D01*
X78519Y10566D01*
X77936Y11150D01*
X77620Y11912D01*
X77620Y12325D01*
X77620Y18075D01*
X80541Y18075D01*
D01*
X80541D01*
X80541D01*
X81014Y18121D01*
X81888Y18483D01*
X82556Y19152D01*
X82918Y20025D01*
X82964Y20498D01*
X82964Y22063D01*
X82964Y22165D01*
X83042Y22353D01*
X83186Y22497D01*
X83375Y22575D01*
X83476Y22575D01*
X85696Y22575D01*
X85696Y22575D01*
D02*
G37*
G36*
X38643Y23001D02*
Y19064D01*
X38945D01*
Y17711D01*
X38643D01*
Y15127D01*
Y12192D01*
X36896D01*
Y12200D01*
X34861D01*
X34843Y12262D01*
X34722Y12487D01*
X34560Y12685D01*
X34559Y12685D01*
X33622Y13623D01*
X33424Y13786D01*
X33198Y13906D01*
X32953Y13981D01*
X32698Y14006D01*
X30637D01*
X30637Y14006D01*
X30597Y14042D01*
Y17711D01*
X30045D01*
Y19064D01*
X30597D01*
Y23001D01*
Y26544D01*
X32959D01*
Y26610D01*
X38643D01*
Y23001D01*
D02*
G37*
G36*
X86620Y37212D02*
X86122Y37163D01*
X85202Y36782D01*
X84497Y36078D01*
X84116Y35157D01*
X84067Y34659D01*
Y34659D01*
Y34659D01*
D01*
X84067Y29372D01*
X83114Y29575D01*
Y39325D01*
X86620D01*
X86620Y37212D01*
D02*
G37*
G36*
X81706Y27075D02*
X82079Y27075D01*
X82079Y24575D01*
X82079Y20978D01*
X82079D01*
X82079Y20898D01*
X82017Y20750D01*
X81904Y20636D01*
X81756Y20575D01*
X78079D01*
X78079Y20575D01*
X77789Y20561D01*
X77220Y20447D01*
X76684Y20225D01*
X76202Y19903D01*
X75792Y19493D01*
X75469Y19011D01*
X75248Y18475D01*
X75134Y17906D01*
X75120Y17616D01*
Y11844D01*
X75120Y11844D01*
X75157Y11469D01*
X75444Y10775D01*
X75975Y10245D01*
X76668Y9958D01*
X77043Y9921D01*
X77043Y9921D01*
X77453Y9921D01*
X78257Y9761D01*
X79015Y9447D01*
X79697Y8992D01*
X80277Y8412D01*
X80732Y7730D01*
X81046Y6972D01*
X81206Y6168D01*
X81206Y5758D01*
X81206Y3633D01*
X81206Y3633D01*
X81206Y3381D01*
X81108Y2887D01*
X80915Y2421D01*
X80635Y2002D01*
X80279Y1646D01*
X79860Y1366D01*
X79394Y1173D01*
X78900Y1075D01*
X78648Y1075D01*
X74470D01*
X74165Y1075D01*
X73566Y1194D01*
X73002Y1428D01*
X72494Y1767D01*
X72062Y2199D01*
X71723Y2707D01*
X71489Y3271D01*
X71370Y3870D01*
X71370Y4175D01*
X71370Y18575D01*
X71370D01*
X71565Y18594D01*
X71926Y18743D01*
X72202Y19019D01*
X72351Y19380D01*
X72370Y19575D01*
X72370Y24575D01*
X79206Y24575D01*
D01*
X79206D01*
X79206D01*
X79384Y24592D01*
X79714Y24729D01*
X79966Y24981D01*
X80102Y25311D01*
X80120Y25489D01*
X80120Y25489D01*
X80120Y25804D01*
X80361Y26387D01*
X80808Y26833D01*
X81391Y27075D01*
X81706Y27075D01*
D02*
G37*
%LPC*%
G36*
X82964Y22063D02*
Y22063D01*
D01*
Y22063D01*
D02*
G37*
%LPD*%
D10*
X44463Y34610D02*
D03*
X39541D02*
D03*
X34620D02*
D03*
X29699D02*
D03*
Y43075D02*
D03*
X34620D02*
D03*
X39541D02*
D03*
X44463D02*
D03*
D11*
X84545Y25400D02*
D03*
D12*
X81593Y29140D02*
D03*
X83561D02*
D03*
X85530D02*
D03*
X87498D02*
D03*
Y21659D02*
D03*
X85530D02*
D03*
X83561D02*
D03*
X81593D02*
D03*
D13*
X31667Y10612D02*
D03*
X33636D02*
D03*
X35604D02*
D03*
X37573D02*
D03*
X31667Y28132D02*
D03*
X33636D02*
D03*
X35604D02*
D03*
X37573D02*
D03*
D14*
X28616Y28230D02*
D03*
Y26262D02*
D03*
Y24293D02*
D03*
Y22325D02*
D03*
Y20356D02*
D03*
Y18388D02*
D03*
Y16419D02*
D03*
Y14451D02*
D03*
Y12482D02*
D03*
Y10514D02*
D03*
X40624Y28230D02*
D03*
Y26262D02*
D03*
Y24293D02*
D03*
Y22325D02*
D03*
Y20356D02*
D03*
Y18388D02*
D03*
Y16419D02*
D03*
Y14451D02*
D03*
Y12482D02*
D03*
Y10514D02*
D03*
D15*
X88370Y13803D02*
D03*
Y17346D02*
D03*
X84370Y13835D02*
D03*
Y17378D02*
D03*
X49620Y38446D02*
D03*
Y34902D02*
D03*
Y45096D02*
D03*
Y41553D02*
D03*
X92520Y30906D02*
D03*
Y27362D02*
D03*
X67870Y10097D02*
D03*
Y6553D02*
D03*
D16*
X60630Y37766D02*
D03*
Y40325D02*
D03*
Y42884D02*
D03*
X68110D02*
D03*
Y40325D02*
D03*
Y37766D02*
D03*
D17*
X20079Y32244D02*
D03*
Y27322D02*
D03*
Y22401D02*
D03*
Y17480D02*
D03*
D18*
X8661Y42283D02*
D03*
Y7440D02*
D03*
D19*
X65100Y19154D02*
D03*
Y21122D02*
D03*
Y23091D02*
D03*
Y25059D02*
D03*
Y27028D02*
D03*
Y28996D02*
D03*
X50140D02*
D03*
Y27028D02*
D03*
Y25059D02*
D03*
Y23091D02*
D03*
Y21122D02*
D03*
Y19154D02*
D03*
D20*
X62541Y31555D02*
D03*
X60573D02*
D03*
X58604D02*
D03*
X56636D02*
D03*
X54667D02*
D03*
X52699D02*
D03*
Y16594D02*
D03*
X54667D02*
D03*
X56636D02*
D03*
X58604D02*
D03*
X60573D02*
D03*
X62541D02*
D03*
D21*
X57620Y24075D02*
D03*
D22*
X78120Y38575D02*
D03*
X86620D02*
D03*
D23*
X92370Y17150D02*
D03*
Y14000D02*
D03*
X45620Y14033D02*
D03*
Y10883D02*
D03*
D24*
X35433Y47638D02*
D03*
X38583D02*
D03*
X30045Y5575D02*
D03*
X33195D02*
D03*
X62445Y12075D02*
D03*
X59295D02*
D03*
D25*
X42876Y5825D02*
D03*
X37364D02*
D03*
X63626Y7325D02*
D03*
X58114D02*
D03*
D26*
X75295Y22468D02*
D03*
Y28768D02*
D03*
X52370Y5425D02*
D03*
Y11724D02*
D03*
D27*
X73220Y15575D02*
D03*
X79520D02*
D03*
D28*
X88370Y13803D02*
X99866D01*
X44463Y43075D02*
Y47325D01*
X60630Y42884D02*
X64370D01*
X44463Y47325D02*
X47392D01*
X49620Y45096D01*
X99866Y13803D02*
X101575Y15512D01*
D29*
X85795Y25400D02*
X87498Y23697D01*
X67716Y2362D02*
X70153Y4798D01*
X37573Y26096D02*
Y28132D01*
X35604Y26096D02*
Y28132D01*
X33636Y25825D02*
Y28132D01*
X37573Y10612D02*
Y13203D01*
X48870Y21122D02*
X50140D01*
X46136Y18388D02*
X48870Y21122D01*
X48096Y25059D02*
X50140D01*
X47780Y25375D02*
X48096Y25059D01*
X44186Y25375D02*
X47780D01*
X45638Y38842D02*
X48348Y41553D01*
X39620Y34689D02*
Y35575D01*
X48348Y41553D02*
X49620D01*
X84370Y13835D02*
X84736D01*
X92173Y17346D02*
X92370Y17150D01*
X88370Y17346D02*
X92173D01*
X88248D02*
X88370D01*
X84736Y13835D02*
X88248Y17346D01*
X67870Y10097D02*
X69420Y11647D01*
X39541Y34610D02*
X39620Y34689D01*
X28616Y28230D02*
Y29821D01*
X31667Y28132D02*
Y29372D01*
X28616Y29821D02*
X29620Y30825D01*
X30857D01*
X33636Y10612D02*
X35604D01*
X58870Y11650D02*
X59295Y12075D01*
X58620Y24075D02*
X61573Y21122D01*
X62445Y12075D02*
X62541Y12171D01*
Y16594D01*
X56636Y31555D02*
Y33558D01*
X87498Y27575D02*
Y29140D01*
X85919Y25557D02*
X87498Y27575D01*
X92370Y34184D02*
X92520Y34034D01*
X87498Y21659D02*
Y23697D01*
X85795Y25400D02*
X85919Y25557D01*
X81593Y29140D02*
Y30602D01*
X40624Y26262D02*
X42807D01*
X46136Y23091D02*
X50140D01*
X63626Y7325D02*
X64398Y6553D01*
X67870D01*
X62445Y40325D02*
X63415Y39354D01*
X60630Y40325D02*
X62445D01*
X63415Y36846D02*
Y39354D01*
X62541Y31555D02*
Y33709D01*
X65100Y36268D01*
Y39055D01*
X66370Y40325D01*
X68110D01*
X60573Y31555D02*
Y34004D01*
X63415Y36846D01*
X58604Y31555D02*
Y34283D01*
X55769Y34425D02*
X56636Y33558D01*
X43148Y24337D02*
X44186Y25375D01*
X42807Y26262D02*
X43520Y26975D01*
X46853D01*
X48874Y28996D01*
X50140D01*
X41624Y30825D02*
X44463Y33664D01*
Y34610D01*
X44648Y34425D01*
X49620Y41553D02*
X54142D01*
X55420Y37468D02*
X58604Y34283D01*
X55420Y37468D02*
Y40275D01*
X54142Y41553D02*
X55420Y40275D01*
X50140Y19154D02*
X52699D01*
X57620Y24075D01*
X60573Y16594D02*
Y21122D01*
X40624Y20356D02*
X42026D01*
X20079Y17480D02*
X24356Y13203D01*
X24606D01*
X19936Y22259D02*
X20079Y22401D01*
X14370Y22259D02*
X19936D01*
X30857Y30825D02*
X32337Y32305D01*
Y37174D01*
X36809Y38386D02*
X39620Y35575D01*
X31667Y29372D02*
X33120Y30825D01*
X41624D01*
X32337Y37174D02*
X33549Y38386D01*
X36809D01*
X65100Y25059D02*
X66854D01*
X69420Y11647D02*
Y14834D01*
X65100Y19154D02*
X69420Y14834D01*
X65100Y28996D02*
X65353D01*
X85530Y29140D02*
Y31051D01*
X86223Y31744D01*
X92370Y17150D02*
Y20323D01*
X92520Y20472D01*
X92520Y31201D02*
Y34034D01*
X92520Y27362D02*
X92642D01*
X95669Y30390D01*
X86223Y31744D02*
X89122D01*
X90158Y30709D01*
X92370Y34184D02*
Y34325D01*
X80709Y41732D02*
X90551D01*
X95669Y36614D01*
Y30390D02*
Y36614D01*
X90158Y29429D02*
Y30709D01*
Y29429D02*
X92299Y27288D01*
X67870Y10097D02*
X67992D01*
X70153Y7936D01*
Y4798D02*
Y7936D01*
X46120Y23075D02*
X46136Y23091D01*
X42026Y20356D02*
X43148Y21479D01*
Y24337D01*
X46120Y22575D02*
Y23075D01*
X45626Y13693D02*
Y14069D01*
X44648Y34425D02*
X55769D01*
X39620Y35575D02*
X42888Y38842D01*
X45638D01*
X37573Y28132D02*
Y28230D01*
X40624D01*
X80541Y31654D02*
X81593Y30602D01*
X80541Y31654D02*
Y33912D01*
X65100Y21122D02*
X67429D01*
X65100Y23091D02*
X68902D01*
X68189Y31832D02*
X69008Y32651D01*
X65353Y28996D02*
X68189Y31832D01*
X66854Y25059D02*
X69370Y27575D01*
X67429Y21122D02*
X68976Y19575D01*
X68902Y23091D02*
X69386Y23575D01*
D30*
X33636Y10612D02*
Y11762D01*
X28616Y18388D02*
X31667D01*
X37671D02*
X40624D01*
X33636Y6016D02*
Y10612D01*
X40624Y16419D02*
X43276D01*
X45626Y14069D01*
X50120Y38441D02*
X52486D01*
X30419Y12482D02*
X30637Y12700D01*
X28616Y12482D02*
X30419D01*
X32698Y12700D02*
X33636Y11762D01*
X30637Y12700D02*
X32698D01*
X31667Y9307D02*
Y10612D01*
X30045Y7685D02*
X31667Y9307D01*
X30045Y5575D02*
Y7685D01*
X37573Y10612D02*
X37671Y10514D01*
X40624D01*
D31*
X33195Y5575D02*
X37364Y5575D01*
Y5825D02*
X37614Y5575D01*
X62445Y12075D02*
X63626D01*
Y7325D02*
Y12075D01*
Y4831D02*
Y7325D01*
X14120Y27322D02*
X20079D01*
X37364Y5575D02*
X37364Y5575D01*
X58301Y37698D02*
X60630D01*
X57620Y38379D02*
X58301Y37698D01*
X57620Y38379D02*
Y44567D01*
X63626Y12075D02*
X64620D01*
X37364Y5641D02*
Y5825D01*
Y5575D02*
Y5641D01*
X37431Y5575D01*
X37364D02*
X37431D01*
X37614D01*
X37364Y5575D02*
Y5575D01*
X52370Y10883D02*
Y11724D01*
X42876Y5825D02*
X46801D01*
X46745Y10883D02*
X46801Y10827D01*
Y5825D02*
Y10827D01*
X46745Y10883D02*
X52370D01*
X45620D02*
X46745D01*
X52370Y5425D02*
X55827Y1969D01*
X60764D01*
X63626Y4831D01*
X25620Y5575D02*
X30045D01*
X37431Y5575D02*
X41037Y1969D01*
X48913D01*
X52370Y5425D01*
X64620Y12075D02*
X66120Y13575D01*
X68110Y42952D02*
X70511D01*
X101075Y36012D02*
X101575Y35512D01*
X101075Y35512D02*
Y36012D01*
Y37107D01*
X106535Y40551D02*
X111575Y35512D01*
X57620Y44567D02*
X61092Y48038D01*
X70511Y42952D02*
X72691Y45132D01*
X92119Y48038D02*
X99606Y40551D01*
X106535D01*
X91065Y45132D02*
X100186Y36012D01*
X101075D01*
X61092Y48038D02*
X92119D01*
X72691Y45132D02*
X91065D01*
X8898Y27322D02*
X14120D01*
X8661Y27559D02*
X8898Y27322D01*
D32*
X68110Y37766D02*
X70502D01*
X71820Y39084D01*
D33*
X58114Y7325D02*
Y11724D01*
X52370D02*
X58114D01*
D34*
X20079Y32244D02*
Y37795D01*
X29620Y43075D02*
X29699D01*
X20079Y37795D02*
X25280Y42996D01*
X29620D01*
Y43075D02*
Y47325D01*
D35*
X34620Y42867D02*
Y43075D01*
X30596Y38842D02*
X34620Y42867D01*
X26844Y38842D02*
X30596D01*
X38583Y47638D02*
X39541Y46679D01*
Y43075D02*
Y46679D01*
X34620Y43075D02*
Y46923D01*
X35335Y47638D01*
D36*
X75295Y28768D02*
Y35750D01*
X78120Y38575D01*
Y41495D01*
X76378Y41732D02*
X80709D01*
X8661Y7440D02*
Y27559D01*
Y42283D01*
D37*
X76644Y5421D02*
D03*
D38*
X86644D02*
D03*
X101575Y5512D02*
D03*
X111575Y15512D02*
D03*
X101575D02*
D03*
X111575Y25512D02*
D03*
X101575D02*
D03*
X111575Y35512D02*
D03*
X101575D02*
D03*
X111575Y45512D02*
D03*
X101575D02*
D03*
D39*
X111575Y5512D02*
D03*
D40*
X67716Y2362D02*
D03*
X68976Y19575D02*
D03*
D41*
X44463Y47325D02*
D03*
X14120Y27322D02*
D03*
X8495Y42825D02*
D03*
X8370Y7075D02*
D03*
X46136Y18388D02*
D03*
X52486Y38441D02*
D03*
X64370Y42884D02*
D03*
X32480Y24606D02*
D03*
X36417D02*
D03*
X36589Y19372D02*
D03*
X46801Y5825D02*
D03*
X25620Y5575D02*
D03*
X32652Y19372D02*
D03*
X24606Y13203D02*
D03*
X14370Y22259D02*
D03*
X26844Y38842D02*
D03*
X66120Y13575D02*
D03*
X71820Y39084D02*
D03*
X80709Y41732D02*
D03*
X92520Y20472D02*
D03*
X92370Y34325D02*
D03*
X29620Y47325D02*
D03*
X46120Y22575D02*
D03*
X80541Y33912D02*
D03*
X76378Y41732D02*
D03*
X68189Y31832D02*
D03*
X69370Y27968D02*
D03*
X69779Y23968D02*
D03*
D42*
X86120Y25400D02*
D03*
X82970D02*
D03*
D43*
X61620Y24075D02*
D03*
X57620Y28075D02*
D03*
Y20075D02*
D03*
X53620Y24075D02*
D03*
M02*
