G04 Layer_Color=255*
%FSLAX25Y25*%
%MOIN*%
G70*
G01*
G75*
%ADD10R,0.02165X0.04134*%
G04:AMPARAMS|DCode=11|XSize=35.43mil|YSize=62.99mil|CornerRadius=1.95mil|HoleSize=0mil|Usage=FLASHONLY|Rotation=90.000|XOffset=0mil|YOffset=0mil|HoleType=Round|Shape=RoundedRectangle|*
%AMROUNDEDRECTD11*
21,1,0.03543,0.05909,0,0,90.0*
21,1,0.03154,0.06299,0,0,90.0*
1,1,0.00390,0.02955,0.01577*
1,1,0.00390,0.02955,-0.01577*
1,1,0.00390,-0.02955,-0.01577*
1,1,0.00390,-0.02955,0.01577*
%
%ADD11ROUNDEDRECTD11*%
G04:AMPARAMS|DCode=12|XSize=9.84mil|YSize=19.69mil|CornerRadius=1.97mil|HoleSize=0mil|Usage=FLASHONLY|Rotation=180.000|XOffset=0mil|YOffset=0mil|HoleType=Round|Shape=RoundedRectangle|*
%AMROUNDEDRECTD12*
21,1,0.00984,0.01575,0,0,180.0*
21,1,0.00591,0.01969,0,0,180.0*
1,1,0.00394,-0.00295,0.00787*
1,1,0.00394,0.00295,0.00787*
1,1,0.00394,0.00295,-0.00787*
1,1,0.00394,-0.00295,-0.00787*
%
%ADD12ROUNDEDRECTD12*%
%ADD13R,0.00984X0.01575*%
%ADD14R,0.02362X0.00984*%
%ADD15R,0.02165X0.01772*%
%ADD16R,0.02362X0.01654*%
%ADD17R,0.06299X0.03150*%
%ADD18R,0.11811X0.08268*%
G04:AMPARAMS|DCode=19|XSize=9.45mil|YSize=23.62mil|CornerRadius=1.98mil|HoleSize=0mil|Usage=FLASHONLY|Rotation=270.000|XOffset=0mil|YOffset=0mil|HoleType=Round|Shape=RoundedRectangle|*
%AMROUNDEDRECTD19*
21,1,0.00945,0.01965,0,0,270.0*
21,1,0.00548,0.02362,0,0,270.0*
1,1,0.00397,-0.00983,-0.00274*
1,1,0.00397,-0.00983,0.00274*
1,1,0.00397,0.00983,0.00274*
1,1,0.00397,0.00983,-0.00274*
%
%ADD19ROUNDEDRECTD19*%
G04:AMPARAMS|DCode=20|XSize=9.45mil|YSize=23.62mil|CornerRadius=1.98mil|HoleSize=0mil|Usage=FLASHONLY|Rotation=180.000|XOffset=0mil|YOffset=0mil|HoleType=Round|Shape=RoundedRectangle|*
%AMROUNDEDRECTD20*
21,1,0.00945,0.01965,0,0,180.0*
21,1,0.00548,0.02362,0,0,180.0*
1,1,0.00397,-0.00274,0.00983*
1,1,0.00397,0.00274,0.00983*
1,1,0.00397,0.00274,-0.00983*
1,1,0.00397,-0.00274,-0.00983*
%
%ADD20ROUNDEDRECTD20*%
G04:AMPARAMS|DCode=21|XSize=106.3mil|YSize=106.3mil|CornerRadius=2.13mil|HoleSize=0mil|Usage=FLASHONLY|Rotation=180.000|XOffset=0mil|YOffset=0mil|HoleType=Round|Shape=RoundedRectangle|*
%AMROUNDEDRECTD21*
21,1,0.10630,0.10205,0,0,180.0*
21,1,0.10205,0.10630,0,0,180.0*
1,1,0.00425,-0.05102,0.05102*
1,1,0.00425,0.05102,0.05102*
1,1,0.00425,0.05102,-0.05102*
1,1,0.00425,-0.05102,-0.05102*
%
%ADD21ROUNDEDRECTD21*%
%ADD22R,0.06900X0.02800*%
%ADD23R,0.02047X0.02047*%
%ADD24R,0.02047X0.02047*%
%ADD25R,0.02756X0.03543*%
%ADD26R,0.05315X0.03740*%
%ADD27R,0.03740X0.05315*%
%ADD37R,0.05906X0.05906*%
%ADD38C,0.05906*%
%ADD39R,0.05906X0.05906*%
D10*
X44463Y34610D02*
D03*
X39541D02*
D03*
X34620D02*
D03*
X29699D02*
D03*
Y43075D02*
D03*
X34620D02*
D03*
X39541D02*
D03*
X44463D02*
D03*
D11*
X84545Y25400D02*
D03*
D12*
X81593Y29140D02*
D03*
X83561D02*
D03*
X85530D02*
D03*
X87498D02*
D03*
Y21659D02*
D03*
X85530D02*
D03*
X83561D02*
D03*
X81593D02*
D03*
D13*
X31667Y10612D02*
D03*
X33636D02*
D03*
X35604D02*
D03*
X37573D02*
D03*
X31667Y28132D02*
D03*
X33636D02*
D03*
X35604D02*
D03*
X37573D02*
D03*
D14*
X28616Y28230D02*
D03*
Y26262D02*
D03*
Y24293D02*
D03*
Y22325D02*
D03*
Y20356D02*
D03*
Y18388D02*
D03*
Y16419D02*
D03*
Y14451D02*
D03*
Y12482D02*
D03*
Y10514D02*
D03*
X40624Y28230D02*
D03*
Y26262D02*
D03*
Y24293D02*
D03*
Y22325D02*
D03*
Y20356D02*
D03*
Y18388D02*
D03*
Y16419D02*
D03*
Y14451D02*
D03*
Y12482D02*
D03*
Y10514D02*
D03*
D15*
X88370Y13803D02*
D03*
Y17346D02*
D03*
X84370Y13835D02*
D03*
Y17378D02*
D03*
X49620Y38446D02*
D03*
Y34902D02*
D03*
Y45096D02*
D03*
Y41553D02*
D03*
X92520Y30906D02*
D03*
Y27362D02*
D03*
X67870Y10097D02*
D03*
Y6553D02*
D03*
D16*
X60630Y37766D02*
D03*
Y40325D02*
D03*
Y42884D02*
D03*
X68110D02*
D03*
Y40325D02*
D03*
Y37766D02*
D03*
D17*
X20079Y32244D02*
D03*
Y27322D02*
D03*
Y22401D02*
D03*
Y17480D02*
D03*
D18*
X8661Y42283D02*
D03*
Y7440D02*
D03*
D19*
X65100Y19154D02*
D03*
Y21122D02*
D03*
Y23091D02*
D03*
Y25059D02*
D03*
Y27028D02*
D03*
Y28996D02*
D03*
X50140D02*
D03*
Y27028D02*
D03*
Y25059D02*
D03*
Y23091D02*
D03*
Y21122D02*
D03*
Y19154D02*
D03*
D20*
X62541Y31555D02*
D03*
X60573D02*
D03*
X58604D02*
D03*
X56636D02*
D03*
X54667D02*
D03*
X52699D02*
D03*
Y16594D02*
D03*
X54667D02*
D03*
X56636D02*
D03*
X58604D02*
D03*
X60573D02*
D03*
X62541D02*
D03*
D21*
X57620Y24075D02*
D03*
D22*
X78120Y38575D02*
D03*
X86620D02*
D03*
D23*
X92370Y17150D02*
D03*
Y14000D02*
D03*
X45620Y14033D02*
D03*
Y10883D02*
D03*
D24*
X35433Y47638D02*
D03*
X38583D02*
D03*
X30045Y5575D02*
D03*
X33195D02*
D03*
X62445Y12075D02*
D03*
X59295D02*
D03*
D25*
X42876Y5825D02*
D03*
X37364D02*
D03*
X63626Y7325D02*
D03*
X58114D02*
D03*
D26*
X75295Y22468D02*
D03*
Y28768D02*
D03*
X52370Y5425D02*
D03*
Y11724D02*
D03*
D27*
X73220Y15575D02*
D03*
X79520D02*
D03*
D37*
X76644Y5421D02*
D03*
D38*
X86644D02*
D03*
X101575Y5512D02*
D03*
X111575Y15512D02*
D03*
X101575D02*
D03*
X111575Y25512D02*
D03*
X101575D02*
D03*
X111575Y35512D02*
D03*
X101575D02*
D03*
X111575Y45512D02*
D03*
X101575D02*
D03*
D39*
X111575Y5512D02*
D03*
M02*
